<?xml version="1.0" encoding="UTF-8"?>
<svg id="Layer_2" data-name="Layer 2" xmlns="http://www.w3.org/2000/svg" viewBox="0 0 514.01 92.49">
  <defs>
    <style>
      .cls-1 {
        fill: #00aeef;
      }

      .cls-2 {
        fill: #fff;
      }
    </style>
  </defs>
  <g id="Layer_1-2" data-name="Layer 1">
    <g>
      <path class="cls-2" d="M0,45.7c0-4.71,1.21-9.08,3.63-13.09,2.42-4.02,5.76-7.22,10.01-9.61,4.11-2.32,8.56-3.48,13.34-3.48s9.26,1.21,13.44,3.63c4.18,2.42,7.5,5.69,9.96,9.81,2.39,4.18,3.58,8.7,3.58,13.54s-1.21,9.34-3.63,13.49c-2.42,4.15-5.69,7.42-9.81,9.81-4.12,2.46-8.63,3.68-13.54,3.68-5.71,0-10.95-1.69-15.73-5.08v18.12L.1,92.49l-.1-46.79ZM13.39,54.31c1.43,2.42,3.33,4.33,5.72,5.72,2.32,1.46,4.94,2.19,7.87,2.19s5.39-.71,7.81-2.14c2.42-1.43,4.36-3.33,5.82-5.72,1.39-2.39,2.09-5.01,2.09-7.87s-.71-5.39-2.14-7.82c-1.43-2.42-3.33-4.36-5.72-5.82-2.39-1.39-5.01-2.09-7.86-2.09s-5.39.71-7.82,2.14c-2.42,1.43-4.33,3.34-5.72,5.72-1.46,2.32-2.19,4.95-2.19,7.87s.71,5.39,2.14,7.82Z"/>
      <path class="cls-2" d="M57.15.2l10.95,4.98v18.32c4.11-2.52,8.69-3.78,13.74-3.78,4.38,0,8.46.98,12.25,2.94,3.78,1.96,6.87,4.7,9.26,8.21,2.32,3.72,3.48,7.9,3.48,12.54l-.2,30.17h-11.15v-30.17c0-3.85-1.33-6.88-3.98-9.11-2.66-2.22-5.87-3.34-9.66-3.34s-7.1,1.11-9.76,3.34c-2.66,2.22-3.98,5.26-3.98,9.11v30.17h-11.15L57.15.2Z"/>
      <path class="cls-2" d="M152.52,68.4c-4.78,3.39-10.02,5.08-15.73,5.08-4.85,0-9.34-1.21-13.49-3.63-4.15-2.42-7.42-5.72-9.81-9.91-2.46-4.05-3.68-8.53-3.68-13.44s1.21-9.34,3.63-13.49c2.42-4.15,5.72-7.45,9.91-9.91,4.11-2.39,8.59-3.58,13.44-3.58s9.24,1.18,13.39,3.53c4.15,2.36,7.45,5.53,9.91,9.51,2.46,4.05,3.68,8.43,3.68,13.14l-.1,27.48h-11.15v-4.78ZM150.38,38.68c-1.43-2.42-3.33-4.36-5.72-5.82-2.39-1.39-5.01-2.09-7.86-2.09s-5.39.71-7.82,2.14c-2.42,1.43-4.33,3.34-5.72,5.72-1.46,2.32-2.19,4.95-2.19,7.87s.71,5.39,2.14,7.82c1.43,2.42,3.33,4.33,5.72,5.72,2.32,1.46,4.94,2.19,7.87,2.19s5.39-.71,7.81-2.14c2.42-1.43,4.36-3.33,5.82-5.72,1.39-2.39,2.09-5.01,2.09-7.87s-.71-5.39-2.14-7.82Z"/>
      <path class="cls-2" d="M198.32,31.46c-1.19-.13-1.96-.2-2.29-.2-2.79,0-5.39.71-7.82,2.14-2.42,1.43-4.33,3.33-5.72,5.72-1.46,2.32-2.19,4.95-2.19,7.87l.2,26.78h-11.65l-.1-28.57c0-4.71,1.21-9.08,3.63-13.09,2.42-4.02,5.76-7.22,10.01-9.61,4.12-2.32,8.56-3.48,13.34-3.48l2.59.2v12.25Z"/>
      <path class="cls-2" d="M201.3,43.41c0-7.43,1.76-13.24,5.28-17.42,3.52-4.18,8.43-6.27,14.74-6.27,2.79,0,5.58.58,8.36,1.74,2.79,1.16,5.31,2.8,7.57,4.93,1.92-2.12,4.2-3.77,6.82-4.93,2.62-1.16,5.39-1.74,8.31-1.74s5.86.83,9.01,2.49c3.15,1.66,5.76,3.88,7.82,6.67,2.12,2.92,3.19,6.21,3.19,9.86v34.75h-13.04v-34.35c0-2.19-.9-4.02-2.69-5.48-1.79-1.46-3.85-2.19-6.17-2.19-2.92,0-5.44,1.26-7.57,3.78.93,2.66,1.39,5.38,1.39,8.16l-.2,30.17h-11.15v-30.17c0-2.52-.58-4.74-1.74-6.67-1.16-1.92-2.71-3.38-4.63-4.38-1.99-.93-3.75-1.39-5.28-1.39-3.19,0-5.46.96-6.82,2.89-1.36,1.93-2.04,5.11-2.04,9.56v30.17h-11.15v-30.17Z"/>
      <path class="cls-2" d="M318.09,68.4c-4.78,3.39-10.02,5.08-15.73,5.08-4.85,0-9.34-1.21-13.49-3.63-4.15-2.42-7.42-5.72-9.81-9.91-2.46-4.05-3.68-8.53-3.68-13.44s1.21-9.34,3.63-13.49c2.42-4.15,5.72-7.45,9.91-9.91,4.12-2.39,8.59-3.58,13.44-3.58s9.24,1.18,13.39,3.53c4.15,2.36,7.45,5.53,9.91,9.51,2.46,4.05,3.68,8.43,3.68,13.14l-.1,27.48h-11.15v-4.78ZM315.94,38.68c-1.43-2.42-3.33-4.36-5.72-5.82-2.39-1.39-5.01-2.09-7.87-2.09s-5.39.71-7.82,2.14c-2.42,1.43-4.33,3.34-5.72,5.72-1.46,2.32-2.19,4.95-2.19,7.87s.71,5.39,2.14,7.82c1.43,2.42,3.34,4.33,5.72,5.72,2.32,1.46,4.94,2.19,7.87,2.19s5.39-.71,7.82-2.14c2.42-1.43,4.36-3.33,5.82-5.72,1.39-2.39,2.09-5.01,2.09-7.87s-.71-5.39-2.14-7.82Z"/>
      <path class="cls-1" d="M345.36,0v73.47h-13.04V0h13.04Z"/>
      <path class="cls-1" d="M360.1,24.39c4.65-3.19,9.76-4.78,15.33-4.78,3.78,0,7.7.91,11.75,2.74,4.05,1.83,7.5,4.83,10.35,9.01,3.12,4.71,4.68,9.79,4.68,15.23,0,1.46-.1,2.89-.3,4.28l-.2-.1v.1l-41.22,1.09c.8,2.19,1.99,4.1,3.58,5.73,1.59,1.63,3.45,2.84,5.58,3.63,1.73.66,3.58,1,5.58,1,2.26,0,4.43-.45,6.52-1.34s3.87-2.17,5.33-3.83l10.85,4.18c-2.46,3.78-5.71,6.77-9.76,8.96-4.05,2.19-8.36,3.29-12.94,3.29-3.85,0-7.78-.91-11.8-2.74-4.02-1.82-7.45-4.86-10.3-9.11-3.19-4.71-4.78-9.79-4.78-15.23,0-3.19.6-6.37,1.79-9.56,1.99-5.18,5.31-9.36,9.96-12.54ZM360.4,41.62l29.57-.7c-.73-2.06-1.88-3.87-3.44-5.43-1.56-1.56-3.4-2.74-5.53-3.53-1.73-.66-3.58-1-5.58-1-3.25,0-6.24.9-8.96,2.69-2.72,1.79-4.68,4.25-5.87,7.37l-.2.6Z"/>
      <path class="cls-1" d="M447.91,68.4c-4.78,3.39-10.02,5.08-15.73,5.08-4.85,0-9.34-1.21-13.49-3.63-4.15-2.42-7.42-5.72-9.81-9.91-2.46-4.05-3.68-8.53-3.68-13.44s1.21-9.34,3.63-13.49c2.42-4.15,5.72-7.45,9.91-9.91,4.12-2.39,8.59-3.58,13.44-3.58s9.24,1.18,13.39,3.53c4.15,2.36,7.45,5.53,9.91,9.51,2.46,4.05,3.68,8.43,3.68,13.14l-.1,27.48h-11.15v-4.78ZM445.77,38.68c-1.43-2.42-3.33-4.36-5.72-5.82-2.39-1.39-5.01-2.09-7.87-2.09s-5.39.71-7.82,2.14c-2.42,1.43-4.33,3.34-5.72,5.72-1.46,2.32-2.19,4.95-2.19,7.87s.71,5.39,2.14,7.82c1.43,2.42,3.34,4.33,5.72,5.72,2.32,1.46,4.94,2.19,7.87,2.19s5.39-.71,7.82-2.14c2.42-1.43,4.36-3.33,5.82-5.72,1.39-2.39,2.09-5.01,2.09-7.87s-.71-5.39-2.14-7.82Z"/>
      <path class="cls-1" d="M502.66,43.41c0-3.85-1.33-6.88-3.98-9.11-2.66-2.22-5.87-3.34-9.66-3.34s-7.1,1.11-9.76,3.34c-2.66,2.22-3.98,5.26-3.98,9.11v30.17h-11.15v-30.17c0-4.65,1.15-8.78,3.43-12.4,2.29-3.62,5.39-6.42,9.31-8.41,3.85-1.92,7.9-2.89,12.15-2.89s8.46.98,12.25,2.94c3.78,1.96,6.87,4.7,9.26,8.21,2.32,3.72,3.48,7.9,3.48,12.54l-.2,30.17h-11.15v-30.17Z"/>
    </g>
  </g>
</svg>